<svg width="220" height="60" viewBox="0 0 220 60" fill="none" xmlns="http://www.w3.org/2000/svg">
<path d="M66.3977 32.0534C66.3357 31.4284 66.0697 30.9429 65.5996 30.5968C65.1296 30.2507 64.4917 30.0777 63.6859 30.0777C63.1384 30.0777 62.6761 30.1552 62.299 30.3101C61.9219 30.4599 61.6327 30.6691 61.4312 30.9377C61.2349 31.2063 61.1368 31.5111 61.1368 31.852C61.1265 32.1361 61.1859 32.384 61.315 32.5958C61.4493 32.8076 61.6327 32.9909 61.8651 33.1459C62.0975 33.2957 62.3661 33.4274 62.6709 33.541C62.9756 33.6495 63.3011 33.7425 63.6471 33.82L65.0728 34.1609C65.7649 34.3158 66.4002 34.5224 66.9788 34.7807C67.5573 35.039 68.0583 35.3566 68.4819 35.7337C68.9054 36.1108 69.2334 36.555 69.4658 37.0663C69.7034 37.5777 69.8248 38.164 69.83 38.8251C69.8248 39.7962 69.5769 40.6381 69.0862 41.3509C68.6007 42.0586 67.8982 42.6087 66.9788 43.0013C66.0645 43.3887 64.9617 43.5824 63.6704 43.5824C62.3894 43.5824 61.2737 43.3861 60.3233 42.9935C59.378 42.6009 58.6394 42.0199 58.1074 41.2502C57.5805 40.4754 57.3041 39.5173 57.2783 38.3757H60.5247C60.5609 38.9078 60.7132 39.352 60.9818 39.7084C61.2556 40.0596 61.6198 40.3256 62.0743 40.5064C62.534 40.682 63.0531 40.7699 63.6316 40.7699C64.1998 40.7699 64.6931 40.6872 65.1115 40.5219C65.5351 40.3566 65.863 40.1268 66.0955 39.8324C66.3279 39.5379 66.4441 39.1996 66.4441 38.8174C66.4441 38.461 66.3383 38.1614 66.1265 37.9186C65.9199 37.6758 65.6151 37.4692 65.2122 37.2988C64.8145 37.1283 64.3264 36.9734 63.7479 36.8339L62.0201 36.4C60.6823 36.0746 59.6259 35.5658 58.8512 34.8737C58.0764 34.1815 57.6915 33.2492 57.6967 32.0767C57.6915 31.1159 57.9472 30.2766 58.4638 29.5586C58.9855 28.8406 59.7008 28.2802 60.6099 27.8773C61.519 27.4744 62.5521 27.2729 63.7091 27.2729C64.8868 27.2729 65.9147 27.4744 66.7928 27.8773C67.6761 28.2802 68.3631 28.8406 68.8538 29.5586C69.3445 30.2766 69.5976 31.1082 69.6131 32.0534H66.3977Z" fill="#F9FAFB"/>
<path d="M81.9787 27.4899H85.3335V37.7946C85.3335 38.9517 85.0572 39.9641 84.5045 40.8318C83.957 41.6996 83.1899 42.3763 82.2033 42.8618C81.2168 43.3422 80.0675 43.5824 78.7555 43.5824C77.4384 43.5824 76.2865 43.3422 75.2999 42.8618C74.3133 42.3763 73.5463 41.6996 72.9988 40.8318C72.4513 39.9641 72.1775 38.9517 72.1775 37.7946V27.4899H75.5324V37.508C75.5324 38.1123 75.6641 38.6495 75.9275 39.1195C76.1961 39.5896 76.5732 39.9589 77.0587 40.2275C77.5442 40.4961 78.1098 40.6304 78.7555 40.6304C79.4063 40.6304 79.9719 40.4961 80.4523 40.2275C80.9378 39.9589 81.3123 39.5896 81.5758 39.1195C81.8444 38.6495 81.9787 38.1123 81.9787 37.508V27.4899Z" fill="#F9FAFB"/>
<path d="M88.1846 27.4899H92.322L96.6919 38.151H96.8778L101.248 27.4899H105.385V43.3577H102.131V33.0297H101.999L97.8928 43.2802H95.6769L91.5705 32.9909H91.4388V43.3577H88.1846V27.4899Z" fill="#F9FAFB"/>
<path d="M108.24 27.4899H112.377L116.747 38.151H116.933L121.303 27.4899H125.441V43.3577H122.186V33.0297H122.055L117.948 43.2802H115.732L111.626 32.9909H111.494V43.3577H108.24V27.4899Z" fill="#F9FAFB"/>
<path d="M128.296 43.3577V27.4899H138.988V30.2559H131.65V34.0369H138.438V36.8029H131.65V40.5916H139.019V43.3577H128.296Z" fill="#F9FAFB"/>
<path d="M141.746 43.3577V27.4899H148.006C149.205 27.4899 150.227 27.7043 151.074 28.133C151.927 28.5565 152.575 29.1583 153.019 29.9382C153.468 30.713 153.693 31.6247 153.693 32.6733C153.693 33.727 153.466 34.6335 153.011 35.3928C152.557 36.1469 151.898 36.7254 151.036 37.1283C150.178 37.5312 149.14 37.7327 147.921 37.7327H143.729V35.0364H147.379C148.019 35.0364 148.551 34.9486 148.975 34.773C149.398 34.5973 149.713 34.3339 149.92 33.9827C150.132 33.6314 150.238 33.195 150.238 32.6733C150.238 32.1464 150.132 31.7022 149.92 31.3406C149.713 30.979 149.396 30.7053 148.967 30.5193C148.543 30.3282 148.009 30.2327 147.363 30.2327H145.101V43.3577H141.746ZM150.315 36.1366L154.259 43.3577H150.555L146.697 36.1366H150.315Z" fill="#F9FAFB"/>
<path d="M161.125 43.3577V41.3664L169.044 30.2559H161.11V27.4899H173.258V29.4811L165.332 40.5916H173.274V43.3577H161.125Z" fill="#F9FAFB"/>
<path d="M189.775 35.4238C189.775 37.1541 189.447 38.6263 188.791 39.8401C188.14 41.0539 187.252 41.9811 186.126 42.6216C185.005 43.2569 183.744 43.5746 182.345 43.5746C180.935 43.5746 179.669 43.2544 178.548 42.6139C177.427 41.9734 176.541 41.0462 175.891 39.8324C175.24 38.6185 174.914 37.149 174.914 35.4238C174.914 33.6934 175.24 32.2213 175.891 31.0075C176.541 29.7936 177.427 28.869 178.548 28.2337C179.669 27.5932 180.935 27.2729 182.345 27.2729C183.744 27.2729 185.005 27.5932 186.126 28.2337C187.252 28.869 188.14 29.7936 188.791 31.0075C189.447 32.2213 189.775 33.6934 189.775 35.4238ZM186.374 35.4238C186.374 34.3029 186.206 33.3577 185.87 32.588C185.539 31.8184 185.072 31.2347 184.468 30.837C183.863 30.4393 183.156 30.2404 182.345 30.2404C181.534 30.2404 180.826 30.4393 180.222 30.837C179.617 31.2347 179.147 31.8184 178.812 32.588C178.481 33.3577 178.316 34.3029 178.316 35.4238C178.316 36.5446 178.481 37.4899 178.812 38.2595C179.147 39.0291 179.617 39.6128 180.222 40.0106C180.826 40.4083 181.534 40.6071 182.345 40.6071C183.156 40.6071 183.863 40.4083 184.468 40.0106C185.072 39.6128 185.539 39.0291 185.87 38.2595C186.206 37.4899 186.374 36.5446 186.374 35.4238Z" fill="#F9FAFB"/>
<path d="M205.623 27.4899V43.3577H202.726L195.822 33.3706H195.706V43.3577H192.351V27.4899H195.295L202.144 37.4692H202.284V27.4899H205.623Z" fill="#F9FAFB"/>
<path d="M208.486 43.3577V27.4899H219.178V30.2559H211.841V34.0369H218.628V36.8029H211.841V40.5916H219.209V43.3577H208.486Z" fill="#F9FAFB"/>
<path d="M67.1156 52.3874H65.8403C65.7649 52.0251 65.6329 51.7069 65.4443 51.4326C65.2592 51.1584 65.0329 50.9281 64.7655 50.7419C64.5015 50.5523 64.2084 50.4101 63.8862 50.3153C63.5639 50.2205 63.2279 50.1731 62.8783 50.1731C62.2406 50.1731 61.6629 50.3322 61.1453 50.6505C60.631 50.9688 60.2213 51.4377 59.9162 52.0573C59.6145 52.6769 59.4637 53.437 59.4637 54.3377C59.4637 55.2383 59.6145 55.9984 59.9162 56.618C60.2213 57.2376 60.631 57.7065 61.1453 58.0248C61.6629 58.3431 62.2406 58.5022 62.8783 58.5022C63.2279 58.5022 63.5639 58.4548 63.8862 58.36C64.2084 58.2652 64.5015 58.1247 64.7655 57.9385C65.0329 57.7489 65.2592 57.5169 65.4443 57.2427C65.6329 56.9651 65.7649 56.6468 65.8403 56.2879H67.1156C67.0196 56.8195 66.8448 57.2952 66.5911 57.715C66.3374 58.1348 66.022 58.4921 65.6449 58.7866C65.2678 59.0778 64.8444 59.2996 64.3747 59.4519C63.9085 59.6043 63.4096 59.6805 62.8783 59.6805C61.98 59.6805 61.1812 59.4638 60.4819 59.0304C59.7825 58.597 59.2323 57.9808 58.8312 57.1817C58.43 56.3827 58.2295 55.4347 58.2295 54.3377C58.2295 53.2407 58.43 52.2926 58.8312 51.4936C59.2323 50.6945 59.7825 50.0783 60.4819 49.6449C61.1812 49.2115 61.98 48.9948 62.8783 48.9948C63.4096 48.9948 63.9085 49.071 64.3747 49.2234C64.8444 49.3757 65.2678 49.5992 65.6449 49.8938C66.022 50.185 66.3374 50.5405 66.5911 50.9603C66.8448 51.3768 67.0196 51.8525 67.1156 52.3874Z" fill="#FA541C"/>
<path d="M72.9434 59.5383V51.7374H74.1159V52.9156H74.1981C74.3421 52.5296 74.6027 52.2164 74.9798 51.9761C75.3569 51.7357 75.782 51.6155 76.2551 51.6155C76.3442 51.6155 76.4557 51.6172 76.5894 51.6205C76.7231 51.6239 76.8242 51.629 76.8928 51.6358V52.8547C76.8516 52.8445 76.7573 52.8293 76.6099 52.809C76.4659 52.7853 76.3134 52.7734 76.1523 52.7734C75.7683 52.7734 75.4255 52.853 75.1238 53.0121C74.8255 53.1679 74.589 53.3846 74.4141 53.6622C74.2427 53.9364 74.157 54.2496 74.157 54.6018V59.5383H72.9434Z" fill="#FA541C"/>
<path d="M85.3342 59.7008C84.5731 59.7008 83.9166 59.5349 83.3646 59.2031C82.8161 58.8679 82.3927 58.4006 82.0944 57.8013C81.7996 57.1987 81.6522 56.4978 81.6522 55.6988C81.6522 54.8997 81.7996 54.1955 82.0944 53.586C82.3927 52.9732 82.8075 52.4958 83.3389 52.1538C83.8737 51.8085 84.4977 51.6358 85.2108 51.6358C85.6221 51.6358 86.0284 51.7035 86.4295 51.8389C86.8306 51.9744 87.1957 52.1944 87.5248 52.4992C87.854 52.8005 88.1162 53.2 88.3116 53.6977C88.507 54.1955 88.6048 54.8083 88.6048 55.5362V56.0441H82.5161V55.0081H87.3706C87.3706 54.5679 87.2814 54.1751 87.1032 53.8298C86.9283 53.4844 86.6781 53.2119 86.3524 53.0121C86.0301 52.8124 85.6496 52.7125 85.2108 52.7125C84.7274 52.7125 84.3091 52.831 83.956 53.068C83.6063 53.3016 83.3372 53.6063 83.1486 53.9821C82.9601 54.358 82.8658 54.7609 82.8658 55.1909V55.8816C82.8658 56.4707 82.9686 56.9701 83.1743 57.3798C83.3835 57.7861 83.6732 58.0959 84.0434 58.3092C84.4137 58.5191 84.8439 58.6241 85.3342 58.6241C85.653 58.6241 85.941 58.5801 86.1981 58.4921C86.4586 58.4006 86.6832 58.2652 86.8718 58.0858C87.0603 57.9029 87.206 57.6761 87.3089 57.4052L88.4813 57.7302C88.3579 58.123 88.1505 58.4684 87.8591 58.7663C87.5677 59.0609 87.2077 59.2911 86.7792 59.457C86.3507 59.6195 85.869 59.7008 85.3342 59.7008Z" fill="#FA541C"/>
<path d="M96.7068 59.7211C96.2062 59.7211 95.752 59.628 95.344 59.4418C94.9361 59.2522 94.6121 58.9796 94.3721 58.6241C94.1321 58.2652 94.0121 57.8318 94.0121 57.3239C94.0121 56.877 94.1013 56.5147 94.2795 56.2371C94.4578 55.9561 94.6961 55.736 94.9943 55.5769C95.2926 55.4177 95.6217 55.2992 95.9817 55.2214C96.3451 55.1401 96.7102 55.0758 97.077 55.0284C97.557 54.9674 97.9461 54.9217 98.2443 54.8912C98.546 54.8574 98.7654 54.8015 98.9026 54.7236C99.0431 54.6458 99.1134 54.5103 99.1134 54.3173V54.2767C99.1134 53.7756 98.9746 53.3862 98.6969 53.1086C98.4226 52.831 98.0061 52.6922 97.4473 52.6922C96.8679 52.6922 96.4136 52.8174 96.0845 53.068C95.7554 53.3185 95.524 53.586 95.3903 53.8704L94.2384 53.4641C94.4441 52.9901 94.7184 52.6211 95.0612 52.357C95.4074 52.0895 95.7846 51.9033 96.1925 51.7983C96.6039 51.69 97.0084 51.6358 97.4061 51.6358C97.6598 51.6358 97.9512 51.6663 98.2803 51.7272C98.6129 51.7848 98.9334 51.905 99.242 52.0878C99.554 52.2706 99.8128 52.5466 100.018 52.9156C100.224 53.2847 100.327 53.779 100.327 54.3986V59.5383H99.1134V58.4819H99.0517C98.9694 58.6512 98.8323 58.8323 98.6403 59.0253C98.4483 59.2183 98.1929 59.3825 97.8741 59.518C97.5553 59.6534 97.1661 59.7211 96.7068 59.7211ZM96.8919 58.6444C97.3718 58.6444 97.7764 58.5513 98.1055 58.3651C98.438 58.1789 98.6883 57.9385 98.8563 57.6439C99.0277 57.3493 99.1134 57.0395 99.1134 56.7145V55.6175C99.062 55.6784 98.9489 55.7343 98.774 55.7851C98.6026 55.8325 98.4038 55.8748 98.1775 55.9121C97.9547 55.9459 97.737 55.9764 97.5244 56.0035C97.3153 56.0272 97.1456 56.0475 97.0153 56.0644C96.6999 56.1051 96.4051 56.1711 96.1308 56.2625C95.86 56.3505 95.6406 56.4843 95.4726 56.6637C95.308 56.8398 95.2257 57.0802 95.2257 57.3849C95.2257 57.8013 95.3817 58.1162 95.6937 58.3295C96.0091 58.5395 96.4085 58.6444 96.8919 58.6444Z" fill="#FA541C"/>
<path d="M109.909 51.7374V52.7531H105.815V51.7374H109.909ZM107.008 49.8684H108.222V57.3036C108.222 57.6422 108.272 57.8961 108.371 58.0654C108.474 58.2313 108.604 58.3431 108.762 58.4006C108.923 58.4548 109.093 58.4819 109.271 58.4819C109.405 58.4819 109.515 58.4751 109.6 58.4616C109.686 58.4447 109.754 58.4311 109.806 58.4209L110.053 59.4976C109.97 59.5281 109.856 59.5586 109.708 59.5891C109.561 59.6229 109.374 59.6398 109.148 59.6398C108.805 59.6398 108.469 59.567 108.14 59.4215C107.814 59.2759 107.543 59.0541 107.327 58.7561C107.115 58.4582 107.008 58.0824 107.008 57.6287V49.8684Z" fill="#FA541C"/>
<path d="M115.666 59.5383V51.7374H116.879V59.5383H115.666ZM116.283 50.4372C116.046 50.4372 115.842 50.3576 115.671 50.1985C115.503 50.0394 115.419 49.8481 115.419 49.6246C115.419 49.4011 115.503 49.2098 115.671 49.0507C115.842 48.8916 116.046 48.812 116.283 48.812C116.519 48.812 116.722 48.8916 116.89 49.0507C117.061 49.2098 117.147 49.4011 117.147 49.6246C117.147 49.8481 117.061 50.0394 116.89 50.1985C116.722 50.3576 116.519 50.4372 116.283 50.4372Z" fill="#FA541C"/>
<path d="M129.493 51.7374L126.572 59.5383H125.338L122.417 51.7374H123.733L125.913 57.9537H125.996L128.176 51.7374H129.493Z" fill="#FA541C"/>
<path d="M138.055 59.7008C137.294 59.7008 136.637 59.5349 136.085 59.2031C135.537 58.8679 135.113 58.4006 134.815 57.8013C134.52 57.1987 134.373 56.4978 134.373 55.6988C134.373 54.8997 134.52 54.1955 134.815 53.586C135.113 52.9732 135.528 52.4958 136.06 52.1538C136.594 51.8085 137.218 51.6358 137.931 51.6358C138.343 51.6358 138.749 51.7035 139.15 51.8389C139.551 51.9744 139.916 52.1944 140.246 52.4992C140.575 52.8005 140.837 53.2 141.032 53.6977C141.228 54.1955 141.325 54.8083 141.325 55.5362V56.0441H135.237V55.0081H140.091C140.091 54.5679 140.002 54.1751 139.824 53.8298C139.649 53.4844 139.399 53.2119 139.073 53.0121C138.751 52.8124 138.37 52.7125 137.931 52.7125C137.448 52.7125 137.03 52.831 136.677 53.068C136.327 53.3016 136.058 53.6063 135.869 53.9821C135.681 54.358 135.587 54.7609 135.587 55.1909V55.8816C135.587 56.4707 135.689 56.9701 135.895 57.3798C136.104 57.7861 136.394 58.0959 136.764 58.3092C137.134 58.5191 137.565 58.6241 138.055 58.6241C138.374 58.6241 138.662 58.5801 138.919 58.4921C139.179 58.4006 139.404 58.2652 139.592 58.0858C139.781 57.9029 139.927 57.6761 140.03 57.4052L141.202 57.7302C141.079 58.123 140.871 58.4684 140.58 58.7663C140.288 59.0609 139.928 59.2911 139.5 59.457C139.071 59.6195 138.59 59.7008 138.055 59.7008Z" fill="#FA541C"/>
<path d="M161.031 51.7374C160.97 51.2227 160.719 50.8232 160.281 50.5388C159.842 50.2544 159.304 50.1122 158.666 50.1122C158.2 50.1122 157.792 50.1867 157.442 50.3356C157.096 50.4846 156.825 50.6894 156.63 50.9502C156.438 51.2109 156.342 51.5071 156.342 51.8389C156.342 52.1166 156.408 52.3553 156.542 52.555C156.679 52.7514 156.854 52.9156 157.067 53.0477C157.279 53.1763 157.502 53.283 157.735 53.3676C157.968 53.4489 158.183 53.5149 158.378 53.5657L159.448 53.8501C159.722 53.9212 160.027 54.0194 160.363 54.1447C160.702 54.2699 161.026 54.4409 161.335 54.6576C161.647 54.8709 161.904 55.1452 162.106 55.4804C162.309 55.8156 162.41 56.2269 162.41 56.7145C162.41 57.2765 162.261 57.7844 161.962 58.2381C161.667 58.6918 161.235 59.0524 160.666 59.3199C160.101 59.5874 159.413 59.7211 158.604 59.7211C157.85 59.7211 157.197 59.6009 156.645 59.3605C156.096 59.1201 155.664 58.7849 155.349 58.3549C155.037 57.9249 154.861 57.4255 154.819 56.8567H156.136C156.17 57.2495 156.304 57.5745 156.537 57.8318C156.774 58.0858 157.072 58.2754 157.432 58.4006C157.795 58.5225 158.186 58.5835 158.604 58.5835C159.091 58.5835 159.528 58.5056 159.916 58.3498C160.303 58.1907 160.61 57.9706 160.836 57.6896C161.062 57.4052 161.175 57.0734 161.175 56.6942C161.175 56.3488 161.078 56.0678 160.882 55.8511C160.687 55.6344 160.43 55.4584 160.111 55.3229C159.792 55.1875 159.448 55.069 159.077 54.9674L157.781 54.6018C156.959 54.3681 156.307 54.0346 155.827 53.6012C155.347 53.1679 155.107 52.6007 155.107 51.8999C155.107 51.3175 155.267 50.8096 155.586 50.3763C155.908 49.9395 156.34 49.6009 156.882 49.3605C157.427 49.1167 158.035 48.9948 158.707 48.9948C159.386 48.9948 159.989 49.115 160.517 49.3554C161.045 49.5924 161.463 49.9175 161.772 50.3305C162.084 50.7436 162.249 51.2126 162.266 51.7374H161.031Z" fill="#FA541C"/>
<path d="M171.482 59.7008C170.742 59.7008 170.104 59.5281 169.569 59.1828C169.034 58.8374 168.623 58.3617 168.335 57.7556C168.047 57.1496 167.903 56.4572 167.903 55.6784C167.903 54.8862 168.051 54.187 168.345 53.5809C168.644 52.9715 169.058 52.4958 169.59 52.1538C170.125 51.8085 170.749 51.6358 171.462 51.6358C172.017 51.6358 172.518 51.7374 172.963 51.9405C173.409 52.1437 173.774 52.4281 174.059 52.7937C174.343 53.1594 174.52 53.586 174.588 54.0736H173.375C173.282 53.7181 173.076 53.4032 172.758 53.1289C172.442 52.8513 172.017 52.7125 171.482 52.7125C171.009 52.7125 170.594 52.8344 170.238 53.0781C169.885 53.3185 169.609 53.6588 169.41 54.099C169.214 54.5357 169.117 55.0487 169.117 55.6378C169.117 56.2405 169.213 56.7653 169.405 57.2122C169.6 57.6591 169.874 58.0062 170.228 58.2534C170.584 58.5005 171.002 58.6241 171.482 58.6241C171.798 58.6241 172.084 58.5699 172.341 58.4616C172.598 58.3532 172.816 58.1975 172.994 57.9943C173.172 57.7912 173.299 57.5474 173.375 57.263H174.588C174.52 57.7235 174.35 58.1382 174.079 58.5073C173.812 58.873 173.457 59.1641 173.015 59.3808C172.576 59.5941 172.065 59.7008 171.482 59.7008Z" fill="#FA541C"/>
<path d="M181.508 54.8455V59.5383H180.294V49.137H181.508V52.9562H181.61C181.796 52.5533 182.073 52.2334 182.443 51.9964C182.817 51.756 183.314 51.6358 183.935 51.6358C184.473 51.6358 184.944 51.7424 185.349 51.9557C185.753 52.1657 186.067 52.489 186.29 52.9258C186.516 53.3592 186.629 53.911 186.629 54.5814V59.5383H185.416V54.6627C185.416 54.0431 185.253 53.564 184.927 53.2254C184.605 52.8835 184.158 52.7125 183.585 52.7125C183.187 52.7125 182.831 52.7954 182.515 52.9613C182.203 53.1272 181.957 53.3693 181.775 53.6876C181.597 54.0058 181.508 54.3918 181.508 54.8455Z" fill="#FA541C"/>
<path d="M195.99 59.7008C195.277 59.7008 194.651 59.5332 194.113 59.198C193.578 58.8628 193.16 58.3939 192.858 57.7912C192.56 57.1885 192.411 56.4843 192.411 55.6784C192.411 54.8658 192.56 54.1565 192.858 53.5505C193.16 52.9444 193.578 52.4738 194.113 52.1386C194.651 51.8034 195.277 51.6358 195.99 51.6358C196.703 51.6358 197.327 51.8034 197.862 52.1386C198.4 52.4738 198.818 52.9444 199.117 53.5505C199.418 54.1565 199.569 54.8658 199.569 55.6784C199.569 56.4843 199.418 57.1885 199.117 57.7912C198.818 58.3939 198.4 58.8628 197.862 59.198C197.327 59.5332 196.703 59.7008 195.99 59.7008ZM195.99 58.6241C196.532 58.6241 196.977 58.487 197.327 58.2127C197.677 57.9385 197.936 57.5779 198.104 57.131C198.272 56.684 198.356 56.1999 198.356 55.6784C198.356 55.157 198.272 54.6712 198.104 54.2208C197.936 53.7705 197.677 53.4066 197.327 53.1289C196.977 52.8513 196.532 52.7125 195.99 52.7125C195.448 52.7125 195.003 52.8513 194.653 53.1289C194.303 53.4066 194.044 53.7705 193.876 54.2208C193.709 54.6712 193.624 55.157 193.624 55.6784C193.624 56.1999 193.709 56.684 193.876 57.131C194.044 57.5779 194.303 57.9385 194.653 58.2127C195.003 58.487 195.448 58.6241 195.99 58.6241Z" fill="#FA541C"/>
<path d="M208.562 59.7008C207.849 59.7008 207.223 59.5332 206.685 59.198C206.15 58.8628 205.732 58.3939 205.43 57.7912C205.132 57.1885 204.983 56.4843 204.983 55.6784C204.983 54.8658 205.132 54.1565 205.43 53.5505C205.732 52.9444 206.15 52.4738 206.685 52.1386C207.223 51.8034 207.849 51.6358 208.562 51.6358C209.275 51.6358 209.899 51.8034 210.434 52.1386C210.972 52.4738 211.39 52.9444 211.689 53.5505C211.99 54.1565 212.141 54.8658 212.141 55.6784C212.141 56.4843 211.99 57.1885 211.689 57.7912C211.39 58.3939 210.972 58.8628 210.434 59.198C209.899 59.5332 209.275 59.7008 208.562 59.7008ZM208.562 58.6241C209.104 58.6241 209.549 58.487 209.899 58.2127C210.249 57.9385 210.508 57.5779 210.676 57.131C210.844 56.684 210.928 56.1999 210.928 55.6784C210.928 55.157 210.844 54.6712 210.676 54.2208C210.508 53.7705 210.249 53.4066 209.899 53.1289C209.549 52.8513 209.104 52.7125 208.562 52.7125C208.02 52.7125 207.575 52.8513 207.225 53.1289C206.875 53.4066 206.617 53.7705 206.449 54.2208C206.281 54.6712 206.197 55.157 206.197 55.6784C206.197 56.1999 206.281 56.684 206.449 57.131C206.617 57.5779 206.875 57.9385 207.225 58.2127C207.575 58.487 208.02 58.6241 208.562 58.6241Z" fill="#FA541C"/>
<path d="M219.139 49.137V59.5383H217.925V49.137H219.139Z" fill="#FA541C"/>
<path d="M40.4593 42.182C42.2775 53.2729 29.2774 58.0001 21.9138 59.091L30.5502 49.6365C30.5502 49.6365 30.6411 49.6365 30.6411 49.7274C31.0047 49.9092 31.3684 50.091 31.8229 50.091C33.0956 50.091 34.1865 49.0001 34.1865 47.7274C34.1865 46.4547 33.1865 45.3638 31.8229 45.3638C30.5502 45.3638 29.4593 46.3638 29.4593 47.7274C29.4593 48.182 29.5502 48.5456 29.8229 48.9092C29.8229 48.9092 29.8229 49.0001 29.9138 49.0001L21.1865 58.5456C22.3683 39.7274 31.732 36.7274 36.2775 37.5456L39.2775 33.3638L39.732 33.4547C42.1866 33.8183 44.4593 35.182 45.9138 37.2729C45.0957 37.8183 41.732 40.182 40.4593 42.182Z" fill="#FA541C"/>
<path d="M16.3687 25.0001L1.82324 20.4546L35.0051 0.90918L69.5506 21.3637C67.4597 21.8183 61.3688 23.091 54.0961 24.5455C47.7324 20.9092 39.5506 21.8183 32.7324 22.2728C51.0961 23.1819 52.7324 25.9092 52.7324 27.2728V39.5455C40.0051 22.4546 23.1869 32.4546 16.3687 39.5455V25.0001Z" fill="#F9FAFB"/>
</svg>
