<svg width="219" height="60" viewBox="0 0 219 60" fill="none" xmlns="http://www.w3.org/2000/svg">
<path d="M65.4826 32.0534C65.4206 31.4284 65.1546 30.9429 64.6846 30.5968C64.2145 30.2507 63.5766 30.0777 62.7708 30.0777C62.2233 30.0777 61.761 30.1552 61.384 30.3101C61.0069 30.4599 60.7176 30.6691 60.5162 30.9377C60.3199 31.2063 60.2218 31.5111 60.2218 31.852C60.2114 32.1361 60.2708 32.384 60.4 32.5958C60.5343 32.8076 60.7176 32.9909 60.9501 33.1459C61.1825 33.2957 61.4511 33.4274 61.7559 33.541C62.0606 33.6495 62.386 33.7425 62.7321 33.82L64.1577 34.1609C64.8499 34.3158 65.4852 34.5224 66.0637 34.7807C66.6422 35.039 67.1433 35.3566 67.5668 35.7337C67.9904 36.1108 68.3184 36.555 68.5508 37.0663C68.7884 37.5777 68.9098 38.164 68.915 38.8251C68.9098 39.7962 68.6619 40.6381 68.1712 41.3509C67.6856 42.0586 66.9831 42.6087 66.0637 43.0013C65.1495 43.3887 64.0467 43.5824 62.7553 43.5824C61.4743 43.5824 60.3586 43.3861 59.4082 42.9935C58.463 42.6009 57.7243 42.0199 57.1923 41.2502C56.6655 40.4754 56.3891 39.5173 56.3633 38.3757H59.6097C59.6458 38.9078 59.7982 39.352 60.0668 39.7084C60.3406 40.0596 60.7047 40.3256 61.1593 40.5064C61.619 40.682 62.1381 40.7699 62.7166 40.7699C63.2848 40.7699 63.7781 40.6872 64.1965 40.5219C64.62 40.3566 64.948 40.1268 65.1804 39.8324C65.4129 39.5379 65.5291 39.1996 65.5291 38.8174C65.5291 38.461 65.4232 38.1614 65.2114 37.9186C65.0048 37.6758 64.7001 37.4692 64.2972 37.2988C63.8995 37.1283 63.4113 36.9734 62.8328 36.8339L61.105 36.4C59.7672 36.0746 58.7109 35.5658 57.9361 34.8737C57.1613 34.1815 56.7765 33.2492 56.7817 32.0767C56.7765 31.1159 57.0322 30.2766 57.5487 29.5586C58.0704 28.8406 58.7858 28.2802 59.6949 27.8773C60.604 27.4744 61.6371 27.2729 62.7941 27.2729C63.9718 27.2729 64.9997 27.4744 65.8778 27.8773C66.761 28.2802 67.448 28.8406 67.9387 29.5586C68.4294 30.2766 68.6825 31.1082 68.698 32.0534H65.4826Z" fill="#212B36"/>
<path d="M81.0636 27.4899H84.4185V37.7946C84.4185 38.9517 84.1421 39.9641 83.5894 40.8318C83.0419 41.6996 82.2749 42.3763 81.2883 42.8618C80.3017 43.3422 79.1525 43.5824 77.8405 43.5824C76.5233 43.5824 75.3715 43.3422 74.3849 42.8618C73.3983 42.3763 72.6313 41.6996 72.0837 40.8318C71.5362 39.9641 71.2625 38.9517 71.2625 37.7946V27.4899H74.6173V37.508C74.6173 38.1123 74.749 38.6495 75.0125 39.1195C75.2811 39.5896 75.6581 39.9589 76.1437 40.2275C76.6292 40.4961 77.1948 40.6304 77.8405 40.6304C78.4913 40.6304 79.0569 40.4961 79.5373 40.2275C80.0228 39.9589 80.3973 39.5896 80.6607 39.1195C80.9293 38.6495 81.0636 38.1123 81.0636 37.508V27.4899Z" fill="#212B36"/>
<path d="M87.2696 27.4899H91.407L95.7768 38.151H95.9628L100.333 27.4899H104.47V43.3577H101.216V33.0297H101.084L96.9778 43.2802H94.7619L90.6554 32.9909H90.5237V43.3577H87.2696V27.4899Z" fill="#212B36"/>
<path d="M107.325 27.4899H111.462L115.832 38.151H116.018L120.388 27.4899H124.525V43.3577H121.271V33.0297H121.14L117.033 43.2802H114.817L110.711 32.9909H110.579V43.3577H107.325V27.4899Z" fill="#212B36"/>
<path d="M127.38 43.3577V27.4899H138.073V30.2559H130.735V34.0369H137.523V36.8029H130.735V40.5916H138.104V43.3577H127.38Z" fill="#212B36"/>
<path d="M140.831 43.3577V27.4899H147.091C148.289 27.4899 149.312 27.7043 150.159 28.133C151.012 28.5565 151.66 29.1583 152.104 29.9382C152.553 30.713 152.778 31.6247 152.778 32.6733C152.778 33.727 152.551 34.6335 152.096 35.3928C151.642 36.1469 150.983 36.7254 150.121 37.1283C149.263 37.5312 148.225 37.7327 147.006 37.7327H142.814V35.0364H146.464C147.104 35.0364 147.636 34.9486 148.06 34.773C148.483 34.5973 148.798 34.3339 149.005 33.9827C149.217 33.6314 149.323 33.195 149.323 32.6733C149.323 32.1464 149.217 31.7022 149.005 31.3406C148.798 30.979 148.481 30.7053 148.052 30.5193C147.628 30.3282 147.094 30.2327 146.448 30.2327H144.186V43.3577H140.831ZM149.4 36.1366L153.344 43.3577H149.64L145.782 36.1366H149.4Z" fill="#212B36"/>
<path d="M160.21 43.3577V41.3664L168.128 30.2559H160.195V27.4899H172.343V29.4811L164.417 40.5916H172.359V43.3577H160.21Z" fill="#212B36"/>
<path d="M188.86 35.4238C188.86 37.1541 188.532 38.6263 187.876 39.8401C187.225 41.0539 186.337 41.9811 185.211 42.6216C184.09 43.2569 182.829 43.5746 181.43 43.5746C180.02 43.5746 178.754 43.2544 177.633 42.6139C176.512 41.9734 175.626 41.0462 174.976 39.8324C174.325 38.6185 173.999 37.149 173.999 35.4238C173.999 33.6934 174.325 32.2213 174.976 31.0075C175.626 29.7936 176.512 28.869 177.633 28.2337C178.754 27.5932 180.02 27.2729 181.43 27.2729C182.829 27.2729 184.09 27.5932 185.211 28.2337C186.337 28.869 187.225 29.7936 187.876 31.0075C188.532 32.2213 188.86 33.6934 188.86 35.4238ZM185.459 35.4238C185.459 34.3029 185.291 33.3577 184.955 32.588C184.624 31.8184 184.157 31.2347 183.553 30.837C182.948 30.4393 182.241 30.2404 181.43 30.2404C180.619 30.2404 179.911 30.4393 179.307 30.837C178.702 31.2347 178.232 31.8184 177.897 32.588C177.566 33.3577 177.401 34.3029 177.401 35.4238C177.401 36.5446 177.566 37.4899 177.897 38.2595C178.232 39.0291 178.702 39.6128 179.307 40.0106C179.911 40.4083 180.619 40.6071 181.43 40.6071C182.241 40.6071 182.948 40.4083 183.553 40.0106C184.157 39.6128 184.624 39.0291 184.955 38.2595C185.291 37.4899 185.459 36.5446 185.459 35.4238Z" fill="#212B36"/>
<path d="M204.708 27.4899V43.3577H201.81L194.907 33.3706H194.791V43.3577H191.436V27.4899H194.38L201.229 37.4692H201.369V27.4899H204.708Z" fill="#212B36"/>
<path d="M207.571 43.3577V27.4899H218.263V30.2559H210.926V34.0369H217.713V36.8029H210.926V40.5916H218.294V43.3577H207.571Z" fill="#212B36"/>
<path d="M66.2006 52.3874H64.9253C64.8498 52.0251 64.7178 51.7069 64.5293 51.4326C64.3442 51.1584 64.1179 50.9281 63.8505 50.7419C63.5865 50.5523 63.2934 50.4101 62.9711 50.3153C62.6489 50.2205 62.3129 50.1731 61.9632 50.1731C61.3256 50.1731 60.7479 50.3322 60.2302 50.6505C59.716 50.9688 59.3063 51.4377 59.0012 52.0573C58.6995 52.6769 58.5486 53.437 58.5486 54.3377C58.5486 55.2383 58.6995 55.9984 59.0012 56.618C59.3063 57.2376 59.716 57.7065 60.2302 58.0248C60.7479 58.3431 61.3256 58.5022 61.9632 58.5022C62.3129 58.5022 62.6489 58.4548 62.9711 58.36C63.2934 58.2652 63.5865 58.1247 63.8505 57.9385C64.1179 57.7489 64.3442 57.5169 64.5293 57.2427C64.7178 56.9651 64.8498 56.6468 64.9253 56.2879H66.2006C66.1046 56.8195 65.9297 57.2952 65.676 57.715C65.4224 58.1348 65.107 58.4921 64.7298 58.7866C64.3527 59.0778 63.9293 59.2996 63.4597 59.4519C62.9934 59.6043 62.4946 59.6805 61.9632 59.6805C61.065 59.6805 60.2662 59.4638 59.5668 59.0304C58.8675 58.597 58.3172 57.9808 57.9161 57.1817C57.515 56.3827 57.3145 55.4347 57.3145 54.3377C57.3145 53.2407 57.515 52.2926 57.9161 51.4936C58.3172 50.6945 58.8675 50.0783 59.5668 49.6449C60.2662 49.2115 61.065 48.9948 61.9632 48.9948C62.4946 48.9948 62.9934 49.071 63.4597 49.2234C63.9293 49.3757 64.3527 49.5992 64.7298 49.8938C65.107 50.185 65.4224 50.5405 65.676 50.9603C65.9297 51.3768 66.1046 51.8525 66.2006 52.3874Z" fill="#FA541C"/>
<path d="M72.0283 59.5383V51.7374H73.2008V52.9156H73.2831C73.4271 52.5296 73.6876 52.2164 74.0647 51.9761C74.4419 51.7357 74.867 51.6155 75.3401 51.6155C75.4292 51.6155 75.5406 51.6172 75.6743 51.6205C75.808 51.6239 75.9092 51.629 75.9777 51.6358V52.8547C75.9366 52.8445 75.8423 52.8293 75.6949 52.809C75.5509 52.7853 75.3983 52.7734 75.2372 52.7734C74.8532 52.7734 74.5104 52.853 74.2087 53.0121C73.9105 53.1679 73.6739 53.3846 73.4991 53.6622C73.3277 53.9364 73.242 54.2496 73.242 54.6018V59.5383H72.0283Z" fill="#FA541C"/>
<path d="M84.4191 59.7008C83.658 59.7008 83.0015 59.5349 82.4496 59.2031C81.9011 58.8679 81.4777 58.4006 81.1794 57.8013C80.8846 57.1987 80.7371 56.4978 80.7371 55.6988C80.7371 54.8997 80.8846 54.1955 81.1794 53.586C81.4777 52.9732 81.8925 52.4958 82.4239 52.1538C82.9587 51.8085 83.5826 51.6358 84.2957 51.6358C84.7071 51.6358 85.1134 51.7035 85.5145 51.8389C85.9156 51.9744 86.2807 52.1944 86.6098 52.4992C86.9389 52.8005 87.2012 53.2 87.3966 53.6977C87.592 54.1955 87.6897 54.8083 87.6897 55.5362V56.0441H81.6011V55.0081H86.4555C86.4555 54.5679 86.3664 54.1751 86.1881 53.8298C86.0133 53.4844 85.763 53.2119 85.4373 53.0121C85.1151 52.8124 84.7345 52.7125 84.2957 52.7125C83.8123 52.7125 83.3941 52.831 83.041 53.068C82.6913 53.3016 82.4222 53.6063 82.2336 53.9821C82.045 54.358 81.9508 54.7609 81.9508 55.1909V55.8816C81.9508 56.4707 82.0536 56.9701 82.2593 57.3798C82.4684 57.7861 82.7581 58.0959 83.1284 58.3092C83.4986 58.5191 83.9289 58.6241 84.4191 58.6241C84.738 58.6241 85.0259 58.5801 85.2831 58.4921C85.5436 58.4006 85.7682 58.2652 85.9567 58.0858C86.1453 57.9029 86.291 57.6761 86.3938 57.4052L87.5663 57.7302C87.4429 58.123 87.2355 58.4684 86.9441 58.7663C86.6527 59.0609 86.2927 59.2911 85.8642 59.457C85.4356 59.6195 84.9539 59.7008 84.4191 59.7008Z" fill="#FA541C"/>
<path d="M95.7917 59.7211C95.2912 59.7211 94.8369 59.628 94.429 59.4418C94.021 59.2522 93.697 58.9796 93.4571 58.6241C93.2171 58.2652 93.0971 57.8318 93.0971 57.3239C93.0971 56.877 93.1862 56.5147 93.3645 56.2371C93.5428 55.9561 93.781 55.736 94.0793 55.5769C94.3776 55.4177 94.7067 55.2992 95.0666 55.2214C95.43 55.1401 95.7952 55.0758 96.162 55.0284C96.6419 54.9674 97.031 54.9217 97.3293 54.8912C97.631 54.8574 97.8504 54.8015 97.9875 54.7236C98.1281 54.6458 98.1984 54.5103 98.1984 54.3173V54.2767C98.1984 53.7756 98.0595 53.3862 97.7818 53.1086C97.5076 52.831 97.091 52.6922 96.5322 52.6922C95.9528 52.6922 95.4986 52.8174 95.1695 53.068C94.8404 53.3185 94.609 53.586 94.4753 53.8704L93.3234 53.4641C93.5291 52.9901 93.8033 52.6211 94.1461 52.357C94.4924 52.0895 94.8695 51.9033 95.2775 51.7983C95.6889 51.69 96.0934 51.6358 96.4911 51.6358C96.7448 51.6358 97.0362 51.6663 97.3653 51.7272C97.6978 51.7848 98.0184 51.905 98.3269 52.0878C98.6389 52.2706 98.8977 52.5466 99.1034 52.9156C99.3091 53.2847 99.412 53.779 99.412 54.3986V59.5383H98.1984V58.4819H98.1367C98.0544 58.6512 97.9173 58.8323 97.7253 59.0253C97.5333 59.2183 97.2779 59.3825 96.9591 59.518C96.6402 59.6534 96.2511 59.7211 95.7917 59.7211ZM95.9768 58.6444C96.4568 58.6444 96.8613 58.5513 97.1905 58.3651C97.523 58.1789 97.7733 57.9385 97.9413 57.6439C98.1127 57.3493 98.1984 57.0395 98.1984 56.7145V55.6175C98.147 55.6784 98.0338 55.7343 97.859 55.7851C97.6876 55.8325 97.4887 55.8748 97.2625 55.9121C97.0396 55.9459 96.8219 55.9764 96.6094 56.0035C96.4002 56.0272 96.2305 56.0475 96.1003 56.0644C95.7849 56.1051 95.49 56.1711 95.2158 56.2625C94.9449 56.3505 94.7255 56.4843 94.5575 56.6637C94.393 56.8398 94.3107 57.0802 94.3107 57.3849C94.3107 57.8013 94.4667 58.1162 94.7787 58.3295C95.0941 58.5395 95.4935 58.6444 95.9768 58.6444Z" fill="#FA541C"/>
<path d="M108.994 51.7374V52.7531H104.9V51.7374H108.994ZM106.093 49.8684H107.307V57.3036C107.307 57.6422 107.357 57.8961 107.456 58.0654C107.559 58.2313 107.689 58.3431 107.847 58.4006C108.008 58.4548 108.178 58.4819 108.356 58.4819C108.49 58.4819 108.599 58.4751 108.685 58.4616C108.771 58.4447 108.839 58.4311 108.891 58.421L109.138 59.4976C109.055 59.5281 108.941 59.5586 108.793 59.5891C108.646 59.6229 108.459 59.6398 108.233 59.6398C107.89 59.6398 107.554 59.567 107.225 59.4215C106.899 59.2759 106.628 59.0541 106.412 58.7561C106.2 58.4582 106.093 58.0824 106.093 57.6287V49.8684Z" fill="#FA541C"/>
<path d="M114.751 59.5383V51.7374H115.964V59.5383H114.751ZM115.368 50.4372C115.131 50.4372 114.927 50.3576 114.756 50.1985C114.588 50.0394 114.504 49.8481 114.504 49.6246C114.504 49.4011 114.588 49.2098 114.756 49.0507C114.927 48.8916 115.131 48.812 115.368 48.812C115.604 48.812 115.807 48.8916 115.975 49.0507C116.146 49.2098 116.232 49.4011 116.232 49.6246C116.232 49.8481 116.146 50.0394 115.975 50.1985C115.807 50.3576 115.604 50.4372 115.368 50.4372Z" fill="#FA541C"/>
<path d="M128.578 51.7374L125.657 59.5383H124.423L121.502 51.7374H122.818L124.998 57.9537H125.081L127.261 51.7374H128.578Z" fill="#FA541C"/>
<path d="M137.14 59.7008C136.379 59.7008 135.722 59.5349 135.17 59.2031C134.622 58.8679 134.198 58.4006 133.9 57.8013C133.605 57.1987 133.458 56.4978 133.458 55.6988C133.458 54.8997 133.605 54.1955 133.9 53.586C134.198 52.9732 134.613 52.4958 135.145 52.1538C135.679 51.8085 136.303 51.6358 137.016 51.6358C137.428 51.6358 137.834 51.7035 138.235 51.8389C138.636 51.9744 139.001 52.1944 139.331 52.4992C139.66 52.8005 139.922 53.2 140.117 53.6977C140.313 54.1955 140.41 54.8083 140.41 55.5362V56.0441H134.322V55.0081H139.176C139.176 54.5679 139.087 54.1751 138.909 53.8298C138.734 53.4844 138.484 53.2119 138.158 53.0121C137.836 52.8124 137.455 52.7125 137.016 52.7125C136.533 52.7125 136.115 52.831 135.762 53.068C135.412 53.3016 135.143 53.6063 134.954 53.9821C134.766 54.358 134.671 54.7609 134.671 55.1909V55.8816C134.671 56.4707 134.774 56.9701 134.98 57.3798C135.189 57.7861 135.479 58.0959 135.849 58.3092C136.219 58.5191 136.65 58.6241 137.14 58.6241C137.459 58.6241 137.747 58.5801 138.004 58.4921C138.264 58.4006 138.489 58.2652 138.677 58.0858C138.866 57.9029 139.012 57.6761 139.115 57.4052L140.287 57.7302C140.164 58.123 139.956 58.4684 139.665 58.7663C139.373 59.0609 139.013 59.2911 138.585 59.457C138.156 59.6195 137.675 59.7008 137.14 59.7008Z" fill="#FA541C"/>
<path d="M160.116 51.7374C160.055 51.2227 159.804 50.8232 159.366 50.5388C158.927 50.2544 158.389 50.1122 157.751 50.1122C157.285 50.1122 156.877 50.1867 156.527 50.3356C156.181 50.4846 155.91 50.6894 155.715 50.9502C155.523 51.2109 155.427 51.5071 155.427 51.8389C155.427 52.1166 155.493 52.3553 155.627 52.555C155.764 52.7514 155.939 52.9156 156.152 53.0477C156.364 53.1763 156.587 53.283 156.82 53.3676C157.053 53.4489 157.268 53.5149 157.463 53.5657L158.533 53.8501C158.807 53.9212 159.112 54.0194 159.448 54.1447C159.787 54.2699 160.111 54.4409 160.42 54.6576C160.732 54.8709 160.989 55.1452 161.191 55.4804C161.393 55.8156 161.495 56.2269 161.495 56.7145C161.495 57.2765 161.345 57.7844 161.047 58.2381C160.752 58.6918 160.32 59.0524 159.751 59.3199C159.186 59.5874 158.498 59.7211 157.689 59.7211C156.935 59.7211 156.282 59.6009 155.73 59.3605C155.181 59.1201 154.749 58.7849 154.434 58.3549C154.122 57.9249 153.946 57.4255 153.904 56.8567H155.221C155.255 57.2495 155.389 57.5745 155.622 57.8318C155.858 58.0858 156.157 58.2754 156.517 58.4006C156.88 58.5225 157.271 58.5835 157.689 58.5835C158.176 58.5835 158.613 58.5056 159.001 58.3498C159.388 58.1907 159.695 57.9706 159.921 57.6896C160.147 57.4052 160.26 57.0734 160.26 56.6942C160.26 56.3488 160.163 56.0678 159.967 55.8511C159.772 55.6344 159.515 55.4584 159.196 55.3229C158.877 55.1875 158.533 55.069 158.162 54.9674L156.866 54.6018C156.044 54.3681 155.392 54.0346 154.912 53.6012C154.432 53.1679 154.192 52.6007 154.192 51.8999C154.192 51.3175 154.352 50.8096 154.671 50.3763C154.993 49.9395 155.425 49.6009 155.966 49.3605C156.512 49.1167 157.12 48.9948 157.792 48.9948C158.471 48.9948 159.074 49.115 159.602 49.3554C160.13 49.5924 160.548 49.9175 160.857 50.3305C161.169 50.7436 161.333 51.2126 161.351 51.7374H160.116Z" fill="#FA541C"/>
<path d="M170.567 59.7008C169.827 59.7008 169.189 59.5281 168.654 59.1828C168.119 58.8374 167.708 58.3617 167.42 57.7556C167.132 57.1496 166.988 56.4572 166.988 55.6784C166.988 54.8862 167.136 54.187 167.43 53.5809C167.729 52.9715 168.143 52.4958 168.675 52.1538C169.21 51.8085 169.834 51.6358 170.547 51.6358C171.102 51.6358 171.603 51.7374 172.048 51.9405C172.494 52.1437 172.859 52.4281 173.144 52.7937C173.428 53.1594 173.605 53.586 173.673 54.0736H172.46C172.367 53.7181 172.161 53.4032 171.843 53.1289C171.527 52.8513 171.102 52.7125 170.567 52.7125C170.094 52.7125 169.679 52.8344 169.323 53.0781C168.97 53.3185 168.694 53.6588 168.495 54.099C168.299 54.5357 168.202 55.0487 168.202 55.6378C168.202 56.2405 168.298 56.7653 168.49 57.2122C168.685 57.6591 168.959 58.0062 169.312 58.2534C169.669 58.5005 170.087 58.6241 170.567 58.6241C170.883 58.6241 171.169 58.5699 171.426 58.4616C171.683 58.3532 171.901 58.1975 172.079 57.9943C172.257 57.7912 172.384 57.5474 172.46 57.263H173.673C173.605 57.7235 173.435 58.1382 173.164 58.5073C172.897 58.873 172.542 59.1641 172.1 59.3808C171.661 59.5941 171.15 59.7008 170.567 59.7008Z" fill="#FA541C"/>
<path d="M180.593 54.8455V59.5383H179.379V49.137H180.593V52.9562H180.695C180.88 52.5533 181.158 52.2334 181.528 51.9964C181.902 51.756 182.399 51.6358 183.02 51.6358C183.558 51.6358 184.029 51.7424 184.434 51.9557C184.838 52.1657 185.152 52.489 185.375 52.9258C185.601 53.3592 185.714 53.911 185.714 54.5814V59.5383H184.501V54.6627C184.501 54.0431 184.338 53.564 184.012 53.2254C183.69 52.8835 183.243 52.7125 182.67 52.7125C182.272 52.7125 181.916 52.7954 181.6 52.9613C181.288 53.1272 181.042 53.3693 180.86 53.6876C180.682 54.0058 180.593 54.3918 180.593 54.8455Z" fill="#FA541C"/>
<path d="M195.075 59.7008C194.362 59.7008 193.736 59.5332 193.198 59.198C192.663 58.8628 192.245 58.3939 191.943 57.7912C191.645 57.1885 191.496 56.4843 191.496 55.6784C191.496 54.8658 191.645 54.1565 191.943 53.5505C192.245 52.9444 192.663 52.4738 193.198 52.1386C193.736 51.8034 194.362 51.6358 195.075 51.6358C195.788 51.6358 196.412 51.8034 196.947 52.1386C197.485 52.4738 197.903 52.9444 198.202 53.5505C198.503 54.1565 198.654 54.8658 198.654 55.6784C198.654 56.4843 198.503 57.1885 198.202 57.7912C197.903 58.3939 197.485 58.8628 196.947 59.198C196.412 59.5332 195.788 59.7008 195.075 59.7008ZM195.075 58.6241C195.617 58.6241 196.062 58.487 196.412 58.2127C196.762 57.9385 197.021 57.5779 197.189 57.131C197.357 56.684 197.441 56.1999 197.441 55.6784C197.441 55.157 197.357 54.6712 197.189 54.2208C197.021 53.7705 196.762 53.4066 196.412 53.1289C196.062 52.8513 195.617 52.7125 195.075 52.7125C194.533 52.7125 194.088 52.8513 193.738 53.1289C193.388 53.4066 193.129 53.7705 192.961 54.2208C192.793 54.6712 192.709 55.157 192.709 55.6784C192.709 56.1999 192.793 56.684 192.961 57.131C193.129 57.5779 193.388 57.9385 193.738 58.2127C194.088 58.487 194.533 58.6241 195.075 58.6241Z" fill="#FA541C"/>
<path d="M207.647 59.7008C206.934 59.7008 206.308 59.5332 205.77 59.198C205.235 58.8628 204.817 58.3939 204.515 57.7912C204.217 57.1885 204.068 56.4843 204.068 55.6784C204.068 54.8658 204.217 54.1565 204.515 53.5505C204.817 52.9444 205.235 52.4738 205.77 52.1386C206.308 51.8034 206.934 51.6358 207.647 51.6358C208.36 51.6358 208.984 51.8034 209.519 52.1386C210.057 52.4738 210.475 52.9444 210.774 53.5505C211.075 54.1565 211.226 54.8658 211.226 55.6784C211.226 56.4843 211.075 57.1885 210.774 57.7912C210.475 58.3939 210.057 58.8628 209.519 59.198C208.984 59.5332 208.36 59.7008 207.647 59.7008ZM207.647 58.6241C208.189 58.6241 208.634 58.487 208.984 58.2127C209.334 57.9385 209.593 57.5779 209.761 57.131C209.929 56.684 210.013 56.1999 210.013 55.6784C210.013 55.157 209.929 54.6712 209.761 54.2208C209.593 53.7705 209.334 53.4066 208.984 53.1289C208.634 52.8513 208.189 52.7125 207.647 52.7125C207.105 52.7125 206.66 52.8513 206.31 53.1289C205.96 53.4066 205.702 53.7705 205.534 54.2208C205.366 54.6712 205.282 55.157 205.282 55.6784C205.282 56.1999 205.366 56.684 205.534 57.131C205.702 57.5779 205.96 57.9385 206.31 58.2127C206.66 58.487 207.105 58.6241 207.647 58.6241Z" fill="#FA541C"/>
<path d="M218.224 49.137V59.5383H217.01V49.137H218.224Z" fill="#FA541C"/>
<path d="M39.5442 42.182C41.3624 53.2729 28.3624 58.0001 20.9988 59.091L29.6351 49.6365C29.6351 49.6365 29.726 49.6365 29.726 49.7274C30.0897 49.9092 30.4533 50.091 30.9079 50.091C32.1806 50.091 33.2715 49.0001 33.2715 47.7274C33.2715 46.4547 32.2715 45.3638 30.9079 45.3638C29.6351 45.3638 28.5442 46.3638 28.5442 47.7274C28.5442 48.182 28.6351 48.5456 28.9079 48.9092C28.9079 48.9092 28.9079 49.0001 28.9988 49.0001L20.2715 58.5456C21.4533 39.7274 30.817 36.7274 35.3624 37.5456L38.3624 33.3638L38.817 33.4547C41.2715 33.8183 43.5443 35.182 44.9988 37.2729C44.1806 37.8183 40.817 40.182 39.5442 42.182Z" fill="#FA541C"/>
<path d="M15.4537 25.0001L0.908203 20.4546L34.0901 0.90918L68.6356 21.3637C66.5447 21.8183 60.4538 23.091 53.181 24.5455C46.8174 20.9092 38.6355 21.8183 31.8173 22.2728C50.181 23.1819 51.8174 25.9092 51.8174 27.2728V39.5455C39.0901 22.4546 22.2719 32.4546 15.4537 39.5455V25.0001Z" fill="#212B36"/>
</svg>
