<svg width="467" height="467" viewBox="0 0 467 467" fill="none" xmlns="http://www.w3.org/2000/svg">
<path d="M359.133 417.722H87.4665C84.8584 417.723 82.2757 417.209 79.8661 416.211C77.4565 415.213 75.267 413.75 73.4227 411.906C71.5784 410.062 70.1155 407.873 69.1173 405.463C68.1192 403.054 67.6055 400.471 67.6055 397.863V220.967C67.6056 215.891 69.5492 211.008 73.0371 207.321C76.5251 203.633 81.2926 201.421 86.3605 201.139L368.509 185.413C380.322 184.753 390.086 194.506 389.441 206.32L378.959 398.941C378.684 404.013 376.475 408.787 372.787 412.281C369.099 415.774 364.213 417.722 359.133 417.722Z" fill="#FA541C"/>
<path opacity="0.48" d="M229.645 310.982L378.146 187.306C375.146 185.873 371.832 185.221 368.513 185.412L86.3645 201.139C81.6907 201.395 77.2591 203.299 73.8564 206.514L184.996 309.876C197.061 321.096 216.909 321.587 229.645 310.982Z" fill="#B3200E"/>
<path d="M208.996 304.851C201.387 304.845 194.044 302.05 188.356 296.996L146.491 260.028C145.914 259.503 145.566 258.773 145.523 257.994C145.48 257.216 145.745 256.452 146.261 255.867C146.777 255.282 147.502 254.924 148.28 254.87C149.058 254.816 149.826 255.07 150.418 255.577L192.294 292.547C196.576 296.356 202.031 298.589 207.755 298.875C213.479 299.161 219.129 297.484 223.77 294.121L245.469 278.525C248.643 276.305 252.082 281.007 248.932 283.346C238.657 289.85 222.098 306.178 208.996 304.851Z" fill="#FDAB76"/>
<path d="M132.867 247.016C131.149 247.341 126.547 242.122 125.266 241.298C122.387 238.668 126.225 234.313 129.195 236.847L134.832 241.824C136.899 243.522 135.492 247.115 132.867 247.016Z" fill="#FDAB76"/>
<path d="M173.82 126.564L162.487 187.247L197.822 156.18L173.82 126.564Z" fill="#FDAB76"/>
<path d="M431.003 144.864L185.412 156.783C183.917 156.856 182.423 156.624 181.021 156.102C179.618 155.58 178.336 154.779 177.252 153.746C176.169 152.714 175.306 151.473 174.716 150.097C174.127 148.721 173.823 147.24 173.823 145.744V44.7062C173.822 39.4237 175.879 34.3487 179.556 30.5562C183.233 26.7638 188.243 24.5519 193.523 24.3891L414.869 17.5391C431.347 17.5391 444.706 30.9016 444.706 47.3837V130.482C444.705 134.18 443.282 137.736 440.731 140.413C438.18 143.09 434.697 144.684 431.003 144.864Z" fill="#FDAB76"/>
<path d="M192.755 152.453C184.774 152.609 177.684 145.547 177.865 137.539V46.4757C177.865 35.8923 186.353 27.3458 197.191 27.0178L411.498 20.5474C427.588 20.5474 440.663 33.3132 440.663 49.0048V127.513C440.663 134.922 434.727 141.007 427.146 141.366C426.414 141.387 193.428 152.472 192.755 152.453ZM411.505 21.066L197.206 27.5364C186.652 27.8488 178.385 36.1734 178.385 46.4742V137.539C178.386 139.486 178.781 141.413 179.548 143.202C180.315 144.992 181.437 146.608 182.846 147.951C184.256 149.295 185.923 150.338 187.747 151.019C189.571 151.699 191.515 152.003 193.46 151.911L427.121 140.845C434.422 140.499 440.143 134.643 440.143 127.512V49.0048C440.143 33.6006 427.297 21.066 411.505 21.066Z" fill="#FEE9D1"/>
<path d="M212.75 66.5399C213.701 66.6133 214.243 67.1648 214.869 67.8958L242.24 100.296C241.691 98.2544 240.937 68.388 240.745 65.4809L248.916 65.1855L250.711 115.043C249.399 114.979 245.209 115.529 244.078 114.937C243.588 114.724 243.1 114.327 242.621 113.746L215.358 81.4817C215.808 82.9908 216.661 113.779 216.817 116.263L208.646 116.558L206.851 66.7008C207.615 66.6914 212.104 66.4618 212.75 66.5399Z" fill="white"/>
<path d="M290.428 63.6919L290.694 71.0698L268.593 71.865L269.091 85.6914L286.502 85.0666L286.76 92.204L269.347 92.8288L269.855 106.931L291.956 106.136L292.223 113.548L260.779 114.68L258.984 64.8244L290.428 63.6919Z" fill="white"/>
<path d="M293.841 63.5687C295.417 63.7702 302.417 62.6985 303.67 63.7842C304.214 64.1329 304.619 64.6622 304.812 65.2792C305.852 68.8518 315.38 96.8796 315.622 99.8977C315.747 97.0124 324.573 68.0301 325.463 64.5356C326.188 62.0518 329.086 62.2674 331.179 62.2252C332.674 62.1534 333.863 62.8594 334.358 64.2154C335.473 67.5287 346.23 95.8439 346.643 98.5386C346.643 95.9392 354.194 66.7413 354.908 63.4765C355.065 62.8694 355.423 62.3333 355.923 61.955C357.053 60.7053 363.667 61.2848 365.176 61.0005L351.49 111.414L343.112 111.717L330.99 78.0434C330.834 77.6122 330.678 77.1452 330.507 76.6453C330.337 76.1454 330.178 75.6096 330.018 75.0394C329.975 76.1329 319.964 110.656 319.494 112.567L311.115 112.868L293.841 63.5687Z" fill="white"/>
<path d="M397.672 68.9113C395.694 73.115 391.497 66.5541 385.487 67.2773C382.474 67.3711 379.496 68.4521 378.381 71.2795C377.737 72.9479 377.809 75.4098 379.078 76.7267C381.733 79.5245 386.134 79.9791 389.771 81.2257C394.065 82.5269 398.55 84.4046 400.57 88.7239C402.961 93.9571 401.708 101.413 397.62 105.595C390.171 113.329 375.949 111.919 368.408 104.8C373.198 95.1974 372.862 99.851 380.57 102.613C383.538 103.678 388.994 103.272 391.094 101.06C393.187 99.3277 393.896 94.6944 391.975 92.4137C388.205 88.4958 381.783 88.8942 377.038 86.4963C370.381 83.9969 367.716 75.8738 370.22 69.2722C374.504 57.8983 391.539 57.1063 399.789 64.4452L397.672 68.9113Z" fill="white"/>
<path d="M94.2107 261.389C94.0748 261.646 85.4893 267.964 85.4893 267.964C87.795 284.767 99.5485 296.394 115.503 282.034C115.503 282.034 125.016 284.296 130.076 264.493C131.236 259.948 124.536 259.564 116.451 260.401C106.022 261.476 94.2107 261.389 94.2107 261.389Z" fill="#1C0F79"/>
<path d="M72.504 314.258C86.6226 305.102 85.8697 309.103 102.733 310.312C134.977 303.095 150.309 314.197 158.921 345.41C152.596 351.904 144.636 354.783 144.636 354.783L143.166 414.395L107.915 432.443L67.6817 412.238L69.122 353.981C69.122 353.981 56.3469 348.031 55.4096 345.868C54.4723 343.704 61.2317 322.008 72.504 314.258Z" fill="#00BBD9"/>
<path d="M56.0034 345.606C56.0034 345.606 38.884 393.077 77.9249 412.581C86.037 411.51 82.9128 398.041 82.9128 398.041C82.9128 398.041 65.948 394.292 71.0405 354.692C66.3541 350.832 56.0034 345.606 56.0034 345.606Z" fill="#FDBAB9"/>
<path d="M158.1 345.606C158.1 345.606 169.88 395.154 136.183 412.581C128.077 411.504 131.194 398.041 131.194 398.041C131.194 398.041 144.867 391.308 143.066 354.692C147.743 350.832 158.1 345.606 158.1 345.606Z" fill="#FDBAB9"/>
<path d="M141.118 363.711H70.623C68.744 363.711 67.2207 365.234 67.2207 367.114V412.512C67.2207 414.391 68.744 415.915 70.623 415.915H141.118C142.997 415.915 144.52 414.391 144.52 412.512V367.114C144.52 365.234 142.997 363.711 141.118 363.711Z" fill="#212B36"/>
<path d="M179.294 431.613C170.687 429.258 149.206 430.467 149.125 430.453C148.103 431.73 147.194 442.187 146.916 443.898C147.282 443.676 169.653 448.561 178.679 446.997C185.88 444.757 186.733 433.705 179.294 431.613Z" fill="#1C0F79"/>
<path d="M143.256 429.821C146.146 429.885 149.661 429.805 151.581 432.484C153.826 435.14 154.135 439.858 151.492 442.368C149.435 444.835 144.828 443.562 142.144 443.529L143.256 429.821Z" fill="#FDBAB9"/>
<path d="M56.9203 432.551L56.1392 430.274C56.0236 430.304 34.6427 428.399 25.9525 430.508C18.4668 432.372 19.0432 443.444 26.1837 445.906C35.0223 447.743 57.8388 443.554 58.0107 443.783L56.9203 432.551Z" fill="#1C0F79"/>
<path opacity="0.48" d="M56.9203 432.551L56.1392 430.274C56.0236 430.304 34.6427 428.399 25.9525 430.508C18.4668 432.372 19.0432 443.444 26.1837 445.906C35.0223 447.743 57.8388 443.554 58.0107 443.783L56.9203 432.551Z" fill="black"/>
<path d="M62.0312 429.824C59.146 429.799 55.6265 429.61 53.6426 432.232C51.3259 434.823 50.912 439.533 53.4864 442.114C55.4781 444.64 60.1129 443.519 62.8014 443.562L62.0312 429.824Z" fill="#FDBAB9"/>
<path d="M180.894 396.299C176.882 387.065 167.07 385.567 158.711 389.883C158.566 390.074 105.677 417.182 59.0332 429.062C60.6219 434.282 61.4123 439.873 61.1577 445.327C96.9306 443.489 135.745 431.559 169.101 421.077C179.452 417.741 185.341 406.532 180.894 396.299Z" fill="#1C0F79"/>
<path opacity="0.24" d="M180.894 396.299C176.882 387.065 167.07 385.567 158.711 389.883C158.566 390.074 105.677 417.182 59.0332 429.062C60.6219 434.282 61.4123 439.873 61.1577 445.327C96.9306 443.489 135.745 431.559 169.101 421.077C179.452 417.741 185.341 406.532 180.894 396.299Z" fill="black"/>
<path d="M143.51 443.076C143.296 437.655 144.603 432.766 146.72 428.062C112.595 417.352 79.0999 402.762 53.5934 388.632C30.9424 376.712 19.8512 412.505 42.699 419.342C84.0316 436.182 100.823 439.916 143.566 444.199C143.546 443.824 143.526 443.449 143.51 443.076Z" fill="#1C0F79"/>
<path d="M85.6055 308.164C89.289 327.283 122.784 329.007 125.646 308.114L114.139 305.652L113.177 292.832L95.8703 294.112L95.55 306.297L85.6055 308.164Z" fill="#FDBAB9"/>
<path d="M99.8432 259.119C76.6939 300.016 121.429 320.78 123.036 270.496C119.001 259.202 116.346 260.542 116.346 260.542L99.8432 259.119Z" fill="#FDBAB9"/>
<path d="M127.046 256.18C135.282 258.444 128.243 276.305 115.844 272.081C103.446 267.857 98.5717 267.92 96.6393 271.324C94.7069 274.727 94.2961 286.82 90.1002 280.843C85.5028 274.292 82.9409 261.14 88.5756 256.9C93.6135 253.112 94.7882 247.237 100.829 247.44C108.847 247.71 115.044 244.16 118.667 246.72C122.824 249.672 120.987 254.515 127.046 256.18Z" fill="#212B36"/>
<path d="M95.8792 274.101C88.8496 266.831 91.8567 287.873 95.1528 282.181C97.2851 278.925 95.8792 274.101 95.8792 274.101Z" fill="#FDBAB9"/>
</svg>
